<svg width="150" height="150" viewBox="0 0 150 150" fill="none" xmlns="http://www.w3.org/2000/svg">
<path fill-rule="evenodd" clip-rule="evenodd" d="M75 150C116.421 150 150 116.421 150 75C150 33.5786 116.421 0 75 0C33.5786 0 0 33.5786 0 75C0 116.421 33.5786 150 75 150ZM75 137.5C109.518 137.5 137.5 109.518 137.5 75C137.5 40.4822 109.518 12.5 75 12.5C40.4822 12.5 12.5 40.4822 12.5 75C12.5 109.518 40.4822 137.5 75 137.5Z" fill="url(#paint0_angular_1_308)"/>
<path fill-rule="evenodd" clip-rule="evenodd" d="M142.385 60.0043C145.808 59.5627 148.942 61.9798 149.383 65.4032C149.794 68.5857 150 71.7912 150 75C150 78.4518 147.202 81.25 143.75 81.25C140.298 81.25 137.5 78.4518 137.5 75C137.5 72.326 137.328 69.6547 136.986 67.0027C136.544 63.5793 138.962 60.446 142.385 60.0043Z" fill="#3AE180"/>
<defs>
<radialGradient id="paint0_angular_1_308" cx="0" cy="0" r="1" gradientUnits="userSpaceOnUse" gradientTransform="translate(75 75) scale(75)">
<stop stop-color="#27AE60" stop-opacity="0"/>
<stop offset="0.0001" stop-color="#3AE180" stop-opacity="0"/>
<stop offset="1" stop-color="#3AE180"/>
</radialGradient>
</defs>
</svg>
